<?xml version="1.0" standalone="no"?>
<!DOCTYPE svg PUBLIC "-//W3C//DTD SVG 20010904//EN"
 "http://www.w3.org/TR/2001/REC-SVG-20010904/DTD/svg10.dtd">
<svg version="1.0" xmlns="http://www.w3.org/2000/svg"
 width="80.000000pt" height="80.000000pt" viewBox="0 0 80.000000 80.000000"
 preserveAspectRatio="xMidYMid meet">

<g transform="translate(0.000000,80.000000) scale(0.100000,-0.100000)"
fill="#000000" stroke="none">
<path d="M298 760 c-9 -6 -26 -26 -38 -45 -17 -27 -32 -38 -67 -46 -50 -13
-63 -34 -56 -86 4 -25 -2 -42 -27 -76 -30 -43 -31 -46 -17 -74 9 -16 23 -35
31 -43 11 -9 16 -28 15 -61 -1 -26 3 -55 10 -63 9 -11 5 -26 -23 -72 -20 -32
-32 -62 -28 -66 4 -4 30 -1 59 6 l51 14 17 -59 c9 -33 18 -59 20 -59 2 0 20
27 41 61 46 76 85 97 149 79 36 -10 46 -20 79 -76 20 -35 39 -64 41 -64 2 0
12 25 20 55 18 60 23 62 88 44 22 -6 41 -8 44 -5 3 2 -11 33 -30 68 -32 57
-34 65 -21 83 9 12 12 30 8 53 -5 27 -1 41 25 77 17 24 31 47 31 53 0 5 -14
28 -31 52 -25 35 -30 48 -24 76 8 47 -7 70 -59 83 -34 8 -49 19 -66 46 -30 48
-51 58 -87 40 -35 -19 -71 -19 -103 0 -30 17 -30 17 -52 5z m72 -40 c30 -10
43 -9 75 5 l40 16 28 -32 c15 -19 27 -37 27 -41 0 -4 21 -13 48 -20 l47 -14 5
-56 c4 -40 12 -64 28 -80 28 -31 28 -42 -3 -82 -18 -24 -25 -45 -25 -77 0 -51
-13 -69 -48 -69 -23 0 -66 -37 -88 -75 -11 -19 -13 -19 -58 -3 -43 16 -49 16
-92 0 -45 -16 -47 -16 -58 3 -22 38 -65 75 -88 75 -35 0 -48 18 -48 69 0 32
-7 53 -25 77 -31 40 -31 51 -3 82 16 16 24 40 28 80 l5 56 45 14 c34 9 52 23
73 53 15 22 33 38 40 35 7 -2 28 -10 47 -16z m-106 -523 c31 -45 31 -44 7 -81
l-19 -29 -13 42 -13 43 -43 -7 c-24 -3 -43 -2 -43 2 0 5 11 25 25 45 21 30 29
35 49 30 14 -4 36 -24 50 -45z m374 13 c12 -21 22 -42 22 -45 0 -3 -20 -3 -44
0 l-45 7 -6 -36 c-10 -49 -19 -52 -40 -12 -18 33 -18 33 10 71 24 31 53 52 75
54 3 1 15 -17 28 -39z"/>
<path d="M331 639 c-84 -34 -125 -101 -119 -195 3 -52 9 -70 35 -101 44 -56
86 -76 152 -76 82 0 154 46 180 116 26 69 4 175 -45 218 -52 45 -142 62 -203
38z m134 -28 c96 -44 129 -134 84 -228 -59 -122 -239 -122 -298 0 -33 68 -25
134 22 186 27 29 93 61 127 61 14 0 43 -9 65 -19z"/>
<path d="M440 475 l-64 -65 -36 35 c-34 33 -60 45 -60 27 0 -12 84 -92 96 -92
14 0 144 135 144 149 0 21 -16 10 -80 -54z"/>
</g>
</svg>
