<?xml version="1.0" standalone="no"?>
<!DOCTYPE svg PUBLIC "-//W3C//DTD SVG 20010904//EN"
 "http://www.w3.org/TR/2001/REC-SVG-20010904/DTD/svg10.dtd">
<svg version="1.0" xmlns="http://www.w3.org/2000/svg"
 width="80.000000pt" height="80.000000pt" viewBox="0 0 80.000000 80.000000"
 preserveAspectRatio="xMidYMid meet">

<g transform="translate(0.000000,80.000000) scale(0.100000,-0.100000)"
fill="#000000" stroke="none">
<path d="M363 728 c-19 -19 -25 -20 -51 -9 -37 16 -67 2 -76 -34 -5 -20 -12
-25 -39 -25 -42 0 -57 -15 -57 -57 0 -27 -5 -34 -25 -39 -36 -9 -50 -39 -34
-75 10 -26 9 -32 -10 -53 -27 -28 -27 -44 0 -72 19 -21 20 -27 10 -53 -16 -36
-2 -66 34 -75 20 -5 25 -12 25 -39 0 -42 15 -57 57 -57 27 0 34 -5 39 -25 9
-36 39 -50 75 -34 26 10 32 9 53 -10 12 -11 28 -21 36 -21 8 0 24 10 36 21 21
19 27 20 53 10 36 -16 66 -2 75 34 5 20 12 25 39 25 42 0 57 15 57 57 0 27 5
34 25 39 36 9 50 39 34 75 -10 26 -9 32 10 53 27 28 27 44 0 72 -19 21 -20 27
-10 53 16 36 2 66 -34 75 -20 5 -25 12 -25 39 0 42 -15 57 -57 57 -27 0 -34 5
-39 25 -9 36 -39 50 -75 34 -26 -10 -32 -9 -53 10 -28 27 -46 27 -73 -1z m71
-19 c22 -17 31 -19 56 -10 32 11 53 -1 65 -38 4 -14 17 -21 43 -23 35 -3 37
-5 40 -40 2 -26 9 -39 23 -43 37 -12 49 -33 38 -65 -9 -24 -7 -34 12 -59 l23
-31 -23 -31 c-19 -25 -21 -35 -12 -59 11 -32 -1 -53 -38 -65 -14 -4 -21 -17
-23 -43 -3 -35 -5 -37 -40 -40 -26 -2 -39 -9 -43 -23 -12 -37 -33 -49 -65 -38
-24 9 -34 7 -59 -12 l-31 -23 -31 23 c-25 19 -35 21 -59 12 -32 -11 -53 1 -65
38 -4 14 -17 21 -43 23 -35 3 -37 5 -40 40 -2 26 -9 39 -23 43 -37 12 -49 33
-38 65 9 24 7 34 -12 59 l-23 31 23 31 c19 25 21 35 12 59 -11 32 1 53 38 65
14 4 21 17 23 43 3 35 5 37 40 40 26 2 39 9 43 23 12 37 33 49 65 38 25 -9 34
-7 56 10 15 12 30 21 34 21 4 0 19 -9 34 -21z"/>
<path d="M390 700 c0 -5 5 -10 10 -10 6 0 10 5 10 10 0 6 -4 10 -10 10 -5 0
-10 -4 -10 -10z"/>
<path d="M390 650 c0 -5 5 -10 10 -10 6 0 10 5 10 10 0 6 -4 10 -10 10 -5 0
-10 -4 -10 -10z"/>
<path d="M180 609 c0 -5 5 -7 10 -4 6 3 10 8 10 11 0 2 -4 4 -10 4 -5 0 -10
-5 -10 -11z"/>
<path d="M255 610 c-3 -5 -1 -10 4 -10 6 0 11 5 11 10 0 6 -2 10 -4 10 -3 0
-8 -4 -11 -10z"/>
<path d="M530 610 c0 -5 5 -10 11 -10 5 0 7 5 4 10 -3 6 -8 10 -11 10 -2 0 -4
-4 -4 -10z"/>
<path d="M605 610 c3 -5 8 -10 11 -10 2 0 4 5 4 10 0 6 -5 10 -11 10 -5 0 -7
-4 -4 -10z"/>
<path d="M215 580 c-3 -5 -1 -10 4 -10 6 0 11 5 11 10 0 6 -2 10 -4 10 -3 0
-8 -4 -11 -10z"/>
<path d="M570 580 c0 -5 5 -10 11 -10 5 0 7 5 4 10 -3 6 -8 10 -11 10 -2 0 -4
-4 -4 -10z"/>
<path d="M185 540 c-3 -5 -1 -10 4 -10 6 0 11 5 11 10 0 6 -2 10 -4 10 -3 0
-8 -4 -11 -10z"/>
<path d="M600 540 c0 -5 5 -10 11 -10 5 0 7 5 4 10 -3 6 -8 10 -11 10 -2 0 -4
-4 -4 -10z"/>
<path d="M217 443 c-11 -10 -8 -101 3 -108 6 -4 10 8 10 29 0 45 9 45 39 1 13
-19 27 -35 32 -35 5 0 9 27 9 60 0 33 -4 60 -10 60 -5 0 -10 -19 -10 -42 l0
-42 -31 42 c-33 46 -33 45 -42 35z"/>
<path d="M344 436 c-3 -7 -4 -33 -2 -57 3 -37 7 -45 26 -47 13 -2 31 0 40 4
13 6 11 8 -12 13 -38 8 -47 31 -12 31 14 0 26 5 26 10 0 6 -12 10 -26 10 -34
0 -26 24 9 28 15 2 25 8 22 13 -9 14 -65 11 -71 -5z"/>
<path d="M444 433 c3 -10 10 -37 16 -60 6 -24 15 -43 20 -43 5 0 15 19 21 43
l12 42 9 -35 c13 -49 25 -58 37 -28 17 46 25 102 13 94 -6 -4 -14 -23 -18 -44
l-7 -37 -14 43 c-16 47 -28 47 -38 2 -8 -36 -20 -32 -28 10 -4 16 -11 30 -17
30 -6 0 -9 -8 -6 -17z"/>
<path d="M90 400 c0 -5 5 -10 10 -10 6 0 10 5 10 10 0 6 -4 10 -10 10 -5 0
-10 -4 -10 -10z"/>
<path d="M140 400 c0 -5 5 -10 10 -10 6 0 10 5 10 10 0 6 -4 10 -10 10 -5 0
-10 -4 -10 -10z"/>
<path d="M640 400 c0 -5 5 -10 10 -10 6 0 10 5 10 10 0 6 -4 10 -10 10 -5 0
-10 -4 -10 -10z"/>
<path d="M690 400 c0 -5 5 -10 10 -10 6 0 10 5 10 10 0 6 -4 10 -10 10 -5 0
-10 -4 -10 -10z"/>
<path d="M185 260 c3 -5 8 -10 11 -10 2 0 4 5 4 10 0 6 -5 10 -11 10 -5 0 -7
-4 -4 -10z"/>
<path d="M600 259 c0 -5 5 -7 10 -4 6 3 10 8 10 11 0 2 -4 4 -10 4 -5 0 -10
-5 -10 -11z"/>
<path d="M215 220 c3 -5 8 -10 11 -10 2 0 4 5 4 10 0 6 -5 10 -11 10 -5 0 -7
-4 -4 -10z"/>
<path d="M570 219 c0 -5 5 -7 10 -4 6 3 10 8 10 11 0 2 -4 4 -10 4 -5 0 -10
-5 -10 -11z"/>
<path d="M180 190 c0 -5 5 -10 11 -10 5 0 7 5 4 10 -3 6 -8 10 -11 10 -2 0 -4
-4 -4 -10z"/>
<path d="M255 190 c3 -5 8 -10 11 -10 2 0 4 5 4 10 0 6 -5 10 -11 10 -5 0 -7
-4 -4 -10z"/>
<path d="M530 189 c0 -5 5 -7 10 -4 6 3 10 8 10 11 0 2 -4 4 -10 4 -5 0 -10
-5 -10 -11z"/>
<path d="M605 190 c-3 -5 -1 -10 4 -10 6 0 11 5 11 10 0 6 -2 10 -4 10 -3 0
-8 -4 -11 -10z"/>
<path d="M390 150 c0 -5 5 -10 10 -10 6 0 10 5 10 10 0 6 -4 10 -10 10 -5 0
-10 -4 -10 -10z"/>
<path d="M390 100 c0 -5 5 -10 10 -10 6 0 10 5 10 10 0 6 -4 10 -10 10 -5 0
-10 -4 -10 -10z"/>
</g>
</svg>
