<?xml version="1.0" standalone="no"?>
<!DOCTYPE svg PUBLIC "-//W3C//DTD SVG 20010904//EN"
 "http://www.w3.org/TR/2001/REC-SVG-20010904/DTD/svg10.dtd">
<svg version="1.0" xmlns="http://www.w3.org/2000/svg"
 width="80.000000pt" height="80.000000pt" viewBox="0 0 80.000000 80.000000"
 preserveAspectRatio="xMidYMid meet">

<g transform="translate(0.000000,80.000000) scale(0.100000,-0.100000)"
fill="#000000" stroke="none">
<path d="M0 650 l0 -150 66 0 c58 0 66 2 71 21 4 16 11 19 27 14 11 -4 33 -9
49 -12 l27 -5 0 -89 0 -89 280 0 280 0 0 180 0 180 -127 0 -127 0 -49 48 -48
47 -111 3 c-74 3 -125 -1 -152 -9 -31 -10 -40 -11 -44 -1 -2 8 -27 12 -73 12
l-69 0 0 -150z m100 5 l0 -115 -35 0 -35 0 0 115 0 115 35 0 35 0 0 -115z
m366 80 l39 -34 -56 -1 c-30 0 -60 5 -67 12 -8 8 -15 9 -22 2 -7 -7 7 -26 40
-59 52 -51 61 -72 34 -82 -10 -4 -31 9 -59 37 -38 37 -45 41 -65 30 -22 -12
-47 -10 -82 5 -13 5 -18 2 -18 -9 0 -9 7 -19 15 -22 20 -8 20 -64 0 -64 -8 0
-30 8 -50 17 l-36 17 3 80 3 79 35 13 c19 7 83 13 141 13 l106 1 39 -35z m304
-215 l0 -140 -250 0 -250 0 0 109 c0 104 1 109 23 115 35 9 47 7 47 -8 0 -8
-10 -16 -22 -18 -21 -3 -23 -9 -23 -58 0 -50 2 -55 24 -58 15 -3 27 -14 34
-33 l11 -29 156 0 156 0 11 29 c7 19 19 30 34 33 22 3 24 8 24 58 0 50 -2 55
-24 58 -15 3 -27 14 -34 33 l-11 29 -113 0 c-64 0 -114 4 -118 10 -4 7 52 10
159 10 l166 0 0 -140z m-102 60 c13 -16 29 -30 37 -30 10 0 15 -10 15 -30 0
-20 -5 -30 -15 -30 -8 0 -24 -13 -37 -30 l-22 -30 -126 0 -126 0 -22 30 c-13
17 -29 30 -37 30 -10 0 -15 10 -15 28 0 36 45 60 70 37 9 -8 26 -15 38 -15 15
0 22 -6 22 -20 0 -28 43 -70 71 -70 30 0 69 38 69 67 0 13 -12 35 -26 50 -20
20 -32 24 -55 19 -22 -4 -29 -2 -29 9 0 12 17 15 83 15 81 0 84 -1 105 -30z
m-124 -36 c9 -8 16 -19 16 -24 0 -11 -29 -40 -40 -40 -11 0 -40 29 -40 40 0 5
7 16 16 24 8 9 19 16 24 16 5 0 16 -7 24 -16z"/>
<path d="M663 250 c-4 -15 -9 -17 -23 -10 -46 25 -258 -8 -301 -47 -15 -13
-26 -9 -96 29 -79 42 -80 42 -106 25 -27 -17 -35 -49 -19 -75 5 -6 68 -48 141
-92 l133 -80 204 1 204 1 0 134 0 134 -66 0 c-57 0 -67 -3 -71 -20z m107 -115
l0 -105 -35 0 -35 0 0 105 0 105 35 0 35 0 0 -105z m-433 -11 c12 -13 26 -24
30 -24 22 -1 173 44 173 51 0 18 -23 18 -92 -1 -64 -18 -74 -18 -87 -5 -21 21
-8 30 79 54 83 23 156 27 195 9 23 -10 25 -16 25 -84 0 -92 -3 -94 -148 -94
l-108 0 -128 76 c-126 75 -152 98 -125 115 16 10 152 -61 186 -97z"/>
</g>
</svg>
