<?xml version="1.0" standalone="no"?>
<!DOCTYPE svg PUBLIC "-//W3C//DTD SVG 20010904//EN"
 "http://www.w3.org/TR/2001/REC-SVG-20010904/DTD/svg10.dtd">
<svg version="1.0" xmlns="http://www.w3.org/2000/svg"
 width="50.000000pt" height="50.000000pt" viewBox="0 0 50.000000 50.000000"
 preserveAspectRatio="xMidYMid meet">

<g transform="translate(0.000000,50.000000) scale(0.100000,-0.100000)"
fill="#000000" stroke="none">
<path d="M111 423 l-33 -4 7 -128 c4 -70 7 -144 7 -164 0 -20 4 -37 8 -37 5 0
10 -12 12 -27 2 -22 9 -29 31 -31 24 -3 27 0 27 28 l0 31 78 -3 c75 -3 77 -4
77 -28 0 -19 6 -26 25 -28 21 -2 27 3 38 35 18 53 37 332 23 346 -11 11 -240
19 -300 10z m109 -27 c0 -6 4 -5 9 3 7 10 24 12 72 7 35 -3 72 -6 82 -7 15 0
16 -3 7 -15 -10 -11 -10 -14 0 -14 10 0 10 -3 1 -14 -9 -11 -9 -15 1 -20 8 -4
9 -8 3 -11 -6 -3 -9 -42 -8 -92 1 -97 -4 -88 -15 27 -9 91 -20 100 -133 100
-106 0 -111 -5 -118 -121 l-5 -94 -7 85 c-3 47 -2 92 2 101 5 9 3 21 -3 27 -9
9 -9 12 0 12 6 0 9 6 6 14 -3 8 2 16 13 19 31 9 93 4 93 -7z m80 -65 c0 -4 10
-8 22 -7 11 0 23 -5 25 -11 4 -10 -20 -13 -97 -13 -76 0 -101 3 -98 12 3 7 15
15 29 19 36 10 119 10 119 0z m-60 -75 l0 -34 -50 1 c-50 0 -50 0 -50 34 l0
33 50 0 50 0 0 -34z m112 1 l4 -34 -53 1 c-53 1 -53 1 -53 34 0 32 0 32 49 32
48 0 49 -1 53 -33z m8 -77 c0 -28 -3 -30 -35 -30 -29 0 -35 4 -36 23 -1 21 -1
21 -9 -3 l-8 -25 -2 25 -2 25 -8 -25 -8 -25 -2 25 -2 25 -8 -25 c-7 -22 -8
-22 -9 -4 -1 11 -7 21 -15 21 -7 0 -13 -7 -12 -16 1 -11 -9 -17 -31 -19 -31
-3 -33 -1 -33 27 l0 31 110 0 110 0 0 -30z m20 -58 c0 -5 -61 -9 -135 -9 -74
0 -132 4 -129 9 7 10 264 11 264 0z m-230 -52 c0 -11 -4 -20 -10 -20 -5 0 -10
9 -10 20 0 11 5 20 10 20 6 0 10 -9 10 -20z m213 -5 c-7 -21 -13 -19 -13 6 0
11 4 18 10 14 5 -3 7 -12 3 -20z"/>
<path d="M154 189 c-10 -17 13 -36 27 -22 12 12 4 33 -11 33 -5 0 -12 -5 -16
-11z m26 -9 c0 -5 -4 -10 -10 -10 -5 0 -10 5 -10 10 0 6 5 10 10 10 6 0 10 -4
10 -10z"/>
<path d="M310 180 c0 -11 7 -20 15 -20 8 0 15 9 15 20 0 11 -7 20 -15 20 -8 0
-15 -9 -15 -20z"/>
</g>
</svg>
